<svg xmlns="http://www.w3.org/2000/svg" viewBox="0 0 128 128" id="3-d-cube"><path stroke="#1B1B1B" stroke-linejoin="round" stroke-width="6" d="M56 24.6188C60.9504 21.7607 67.0496 21.7607 72 24.6188L94.1051 37.3812C99.0555 40.2393 102.105 45.5214 102.105 51.2376V76.7624C102.105 82.4786 99.0555 87.7607 94.1051 90.6188L72 103.381C67.0496 106.239 60.9504 106.239 56 103.381L33.8949 90.6188C28.9445 87.7607 25.8949 82.4786 25.8949 76.7624V51.2376C25.8949 45.5214 28.9445 40.2393 33.8949 37.3812L56 24.6188Z" fill="none"></path><path stroke="#1B1B1B" stroke-linecap="round" stroke-width="6" d="M64 25V34M30.4415 44.375L37.899 48.6806M30.4415 83.125L37.899 78.8194M64 94V102M90.101 78.8195L97.5585 83.125M90.101 48.6805L97.5585 44.375M62 46.1547C63.2376 45.4402 64.7624 45.4402 66 46.1547L78.4545 53.3453C79.6921 54.0598 80.4545 55.3803 80.4545 56.8094V71.1906C80.4545 72.6197 79.6921 73.9402 78.4545 74.6547L66 81.8453C64.7624 82.5598 63.2376 82.5598 62 81.8453L49.5455 74.6547C48.3079 73.9402 47.5455 72.6197 47.5455 71.1906V56.8094C47.5455 55.3803 48.3079 54.0598 49.5455 53.3453L62 46.1547zM64 64.8065V78M64 64.8065L77 57M64 64.8065L51 57" fill="none"></path></svg>